<?xml version="1.0" encoding="utf-8"?>
<svg version="1.1" xmlns:xlink="http://www.w3.org/1999/xlink" width="889px" height="756px" xmlns="http://www.w3.org/2000/svg">
  <g transform="matrix(1 0 0 1 -321 -50 )">
    <path d="M 321 50  L 1210 50  L 1210 806  L 321 806  L 321 50  " fill-rule="nonzero" fill="#cccccc" stroke="none" />
    <path d="M 374 103  L 1157 103  L 1157 753  L 374 753  L 374 103  " fill-rule="nonzero" fill="#ffffff" stroke="none" />
    <path d="M 839.98 276.8  C 808.228 276.8  783.28 251.852  783.28 220.1  C 783.28 188.348  808.228 163.4  839.98 163.4  C 871.732 163.4  896.68 188.348  896.68 220.1  C 896.68 251.852  871.732 276.8  839.98 276.8  " fill-rule="nonzero" fill="#cccccc" stroke="none" />
    <path d="M 393 734  L 393 397.4  L 579.25 244.4  L 840 421.735433070866  L 989 336.2  L 1138 421.735433070866  L 1138 734  L 393 734  " fill-rule="nonzero" fill="#169bd5" stroke="none" />
  </g>
</svg>