<?xml version="1.0" encoding="utf-8"?>
<svg version="1.1" xmlns:xlink="http://www.w3.org/1999/xlink" width="35px" height="35px" xmlns="http://www.w3.org/2000/svg">
  <g transform="matrix(1 0 0 1 -60 -391 )">
    <path d="M 77.5 391  C 87.3 391  95 398.7  95 408.5  C 95 418.3  87.3 426  77.5 426  C 67.7 426  60 418.3  60 408.5  C 60 398.7  67.7 391  77.5 391  Z " fill-rule="nonzero" fill="#ffffff" stroke="none" />
    <path d="M 77.5 391.5  C 87.02 391.5  94.5 398.98  94.5 408.5  C 94.5 418.02  87.02 425.5  77.5 425.5  C 67.98 425.5  60.5 418.02  60.5 408.5  C 60.5 398.98  67.98 391.5  77.5 391.5  Z " stroke-width="1" stroke="#797979" fill="none" />
  </g>
</svg>