<?xml version="1.0" encoding="utf-8"?>
<svg version="1.1" xmlns:xlink="http://www.w3.org/1999/xlink" width="5px" height="5px" xmlns="http://www.w3.org/2000/svg">
  <g transform="matrix(1 0 0 1 -73 -493 )">
    <path d="M 75.5 493  C 76.9 493  78 494.1  78 495.5  C 78 496.9  76.9 498  75.5 498  C 74.1 498  73 496.9  73 495.5  C 73 494.1  74.1 493  75.5 493  Z " fill-rule="nonzero" fill="#d7d7d7" stroke="none" />
    <path d="M 75.5 493.5  C 76.62 493.5  77.5 494.38  77.5 495.5  C 77.5 496.62  76.62 497.5  75.5 497.5  C 74.38 497.5  73.5 496.62  73.5 495.5  C 73.5 494.38  74.38 493.5  75.5 493.5  Z " stroke-width="1" stroke="#797979" fill="none" />
  </g>
</svg>