<?xml version="1.0" encoding="utf-8"?>
<svg version="1.1" xmlns:xlink="http://www.w3.org/1999/xlink" width="40px" height="40px" xmlns="http://www.w3.org/2000/svg">
  <g transform="matrix(1 0 0 1 -329 -59 )">
    <path d="M 349 59  C 360.2 59  369 67.8  369 79  C 369 90.2  360.2 99  349 99  C 337.8 99  329 90.2  329 79  C 329 67.8  337.8 59  349 59  Z " fill-rule="nonzero" fill="#ffffff" stroke="none" />
    <path d="M 349 59.5  C 359.92 59.5  368.5 68.08  368.5 79  C 368.5 89.92  359.92 98.5  349 98.5  C 338.08 98.5  329.5 89.92  329.5 79  C 329.5 68.08  338.08 59.5  349 59.5  Z " stroke-width="1" stroke="#797979" fill="none" />
  </g>
</svg>