<?xml version="1.0" encoding="utf-8"?>
<svg version="1.1" xmlns:xlink="http://www.w3.org/1999/xlink" width="10px" height="10px" xmlns="http://www.w3.org/2000/svg">
  <g transform="matrix(1 0 0 1 -520 -424 )">
    <path d="M 525 424  C 527.8 424  530 426.2  530 429  C 530 431.8  527.8 434  525 434  C 522.2 434  520 431.8  520 429  C 520 426.2  522.2 424  525 424  Z " fill-rule="nonzero" fill="#ec808d" stroke="none" />
    <path d="M 525 424.5  C 527.52 424.5  529.5 426.48  529.5 429  C 529.5 431.52  527.52 433.5  525 433.5  C 522.48 433.5  520.5 431.52  520.5 429  C 520.5 426.48  522.48 424.5  525 424.5  Z " stroke-width="1" stroke="#ec808d" fill="none" />
  </g>
</svg>