<?xml version="1.0" encoding="utf-8"?>
<svg version="1.1" xmlns:xlink="http://www.w3.org/1999/xlink" width="55px" height="92px" xmlns="http://www.w3.org/2000/svg">
  <defs>
    <mask fill="white" id="clip21">
      <path d="M 41.8747250170609 91  L 30.508543173102 91.0000178186202  C 40.6497789514307 82.4380278927453  47 69.5849531802685  47 55  C 47 28.6799999999999  26.3200000000001 8  0 7.99887168708483  L 0 0  C 30.8 0  55 24.2  55 55  C 55 68.8755348207873  50.0885085060489 81.4115719614061  41.8747250170609 91  Z " fill-rule="evenodd" />
    </mask>
  </defs>
  <g transform="matrix(1 0 0 1 -564 -261 )">
    <path d="M 41.8747250170609 91  L 30.508543173102 91.0000178186202  C 40.6497789514307 82.4380278927453  47 69.5849531802685  47 55  C 47 28.6799999999999  26.3200000000001 8  0 7.99887168708483  L 0 0  C 30.8 0  55 24.2  55 55  C 55 68.8755348207873  50.0885085060489 81.4115719614061  41.8747250170609 91  Z " fill-rule="nonzero" fill="#02a7f0" stroke="none" transform="matrix(1 0 0 1 564 261 )" />
    <path d="M 41.8747250170609 91  L 30.508543173102 91.0000178186202  C 40.6497789514307 82.4380278927453  47 69.5849531802685  47 55  C 47 28.6799999999999  26.3200000000001 8  0 7.99887168708483  L 0 0  C 30.8 0  55 24.2  55 55  C 55 68.8755348207873  50.0885085060489 81.4115719614061  41.8747250170609 91  Z " stroke-width="2" stroke="#797979" fill="none" transform="matrix(1 0 0 1 564 261 )" mask="url(#clip21)" />
  </g>
</svg>