<?xml version="1.0" encoding="utf-8"?>
<svg version="1.1" xmlns:xlink="http://www.w3.org/1999/xlink" width="75px" height="80px" xmlns="http://www.w3.org/2000/svg">
  <defs>
    <mask fill="white" id="clip22">
      <path d="M 0.792578841992793 61  L 10.6838908443607 60.9999803869723  C 16.5125567684643 67.7715779106237  25.1796753720445 72  35 72  C 52.92 72  67 57.92  67 40  C 67 22.08  52.92 8  35 8.00001380453682  L 35 0  C 57.4 0  75 17.6  75 40  C 75 62.4  57.4 80  35 80  C 20.351643327174 80  7.75597498229109 72.473476130875  0.792578841992793 61  Z " fill-rule="evenodd" />
    </mask>
  </defs>
  <g transform="matrix(1 0 0 1 -529 -276 )">
    <path d="M 0.792578841992793 61  L 10.6838908443607 60.9999803869723  C 16.5125567684643 67.7715779106237  25.1796753720445 72  35 72  C 52.92 72  67 57.92  67 40  C 67 22.08  52.92 8  35 8.00001380453682  L 35 0  C 57.4 0  75 17.6  75 40  C 75 62.4  57.4 80  35 80  C 20.351643327174 80  7.75597498229109 72.473476130875  0.792578841992793 61  Z " fill-rule="nonzero" fill="#ec808d" stroke="none" transform="matrix(1 0 0 1 529 276 )" />
    <path d="M 0.792578841992793 61  L 10.6838908443607 60.9999803869723  C 16.5125567684643 67.7715779106237  25.1796753720445 72  35 72  C 52.92 72  67 57.92  67 40  C 67 22.08  52.92 8  35 8.00001380453682  L 35 0  C 57.4 0  75 17.6  75 40  C 75 62.4  57.4 80  35 80  C 20.351643327174 80  7.75597498229109 72.473476130875  0.792578841992793 61  Z " stroke-width="2" stroke="#797979" fill="none" transform="matrix(1 0 0 1 529 276 )" mask="url(#clip22)" />
  </g>
</svg>