<?xml version="1.0" encoding="utf-8"?>
<svg version="1.1" xmlns:xlink="http://www.w3.org/1999/xlink" width="60px" height="60px" xmlns="http://www.w3.org/2000/svg">
  <g transform="matrix(1 0 0 1 -60 -60 )">
    <path d="M 90 60  C 106.8 60  120 73.2  120 90  C 120 106.8  106.8 120  90 120  C 73.2 120  60 106.8  60 90  C 60 73.2  73.2 60  90 60  Z " fill-rule="nonzero" fill="#ffffff" stroke="none" />
    <path d="M 90 60.5  C 106.52 60.5  119.5 73.48  119.5 90  C 119.5 106.52  106.52 119.5  90 119.5  C 73.48 119.5  60.5 106.52  60.5 90  C 60.5 73.48  73.48 60.5  90 60.5  Z " stroke-width="1" stroke="#797979" fill="none" />
  </g>
</svg>